<?xml version="1.0" encoding="UTF-8" standalone="no"?>
<!-- Created with Inkscape (http://www.inkscape.org/) -->

<svg
   width="177.82422mm"
   height="177.82422mm"
   viewBox="0 0 177.82422 177.82422"
   version="1.1"
   id="svg1"
   xml:space="preserve"
   inkscape:version="1.3 (0e150ed6c4, 2023-07-21)"
   xmlns:inkscape="http://www.inkscape.org/namespaces/inkscape"
   xmlns:sodipodi="http://sodipodi.sourceforge.net/DTD/sodipodi-0.dtd"
   xmlns="http://www.w3.org/2000/svg"
   xmlns:svg="http://www.w3.org/2000/svg"><sodipodi:namedview
     id="namedview1"
     pagecolor="#ffffff"
     bordercolor="#000000"
     borderopacity="0.25"
     inkscape:showpageshadow="2"
     inkscape:pageopacity="0.0"
     inkscape:pagecheckerboard="0"
     inkscape:deskcolor="#d1d1d1"
     inkscape:document-units="mm"
     inkscape:zoom="0.92737795"
     inkscape:cx="272.27303"
     inkscape:cy="302.46568"
     inkscape:window-width="1864"
     inkscape:window-height="1237"
     inkscape:window-x="173"
     inkscape:window-y="85"
     inkscape:window-maximized="0"
     inkscape:current-layer="layer1" /><defs
     id="defs1"><inkscape:path-effect
       effect="offset"
       id="path-effect36"
       is_visible="true"
       lpeversion="1.2"
       linejoin_type="miter"
       unit="mm"
       offset="-4.2"
       miter_limit="4"
       attempt_force_join="false"
       update_on_knot_move="true" /><inkscape:path-effect
       effect="offset"
       id="path-effect34"
       is_visible="true"
       lpeversion="1.2"
       linejoin_type="miter"
       unit="mm"
       offset="-0.5"
       miter_limit="4"
       attempt_force_join="false"
       update_on_knot_move="true" /><inkscape:path-effect
       effect="offset"
       id="path-effect33"
       is_visible="true"
       lpeversion="1.2"
       linejoin_type="miter"
       unit="mm"
       offset="-11.2"
       miter_limit="4"
       attempt_force_join="false"
       update_on_knot_move="true" /><inkscape:path-effect
       effect="offset"
       id="path-effect32"
       is_visible="true"
       lpeversion="1.2"
       linejoin_type="miter"
       unit="mm"
       offset="-2.1"
       miter_limit="4"
       attempt_force_join="false"
       update_on_knot_move="true" /><inkscape:path-effect
       effect="offset"
       id="path-effect30"
       is_visible="true"
       lpeversion="1.2"
       linejoin_type="miter"
       unit="mm"
       offset="-1.819705"
       miter_limit="4"
       attempt_force_join="false"
       update_on_knot_move="true" /><inkscape:path-effect
       effect="offset"
       id="path-effect28"
       is_visible="true"
       lpeversion="1.2"
       linejoin_type="miter"
       unit="mm"
       offset="-0.7"
       miter_limit="4"
       attempt_force_join="false"
       update_on_knot_move="true" /><inkscape:path-effect
       effect="offset"
       id="path-effect27"
       is_visible="true"
       lpeversion="1.2"
       linejoin_type="round"
       unit="mm"
       offset="-0.4"
       miter_limit="4"
       attempt_force_join="false"
       update_on_knot_move="true" /></defs><g
     inkscape:label="Layer 1"
     inkscape:groupmode="layer"
     id="layer1"
     transform="translate(-24.353516,-71.998047)"><rect
       style="display:none;fill:#800000;fill-opacity:1;stroke-width:0.237695"
       id="rect34"
       width="172.89337"
       height="137.80115"
       x="22.538904"
       y="88.158501"
       ry="0"
       rx="22.253601" /><g
       id="g36"
       transform="matrix(0.92409241,0,0,0.98139535,11.125859,1.794089)"
       style="display:none"><rect
         style="display:inline;fill:#800000;fill-opacity:1;stroke-width:0.224275"
         id="rect35"
         width="172.89337"
         height="122.68011"
         x="22.538904"
         y="96.432274"
         ry="52.577194"
         rx="16.547554" /><path
         style="display:inline;fill:#f9f9f9;fill-opacity:1;stroke-width:0.224275"
         id="rect36"
         width="172.89337"
         height="122.68011"
         x="22.538904"
         y="96.432274"
         ry="52.577194"
         rx="16.547554"
         inkscape:path-effect="#path-effect36"
         sodipodi:type="rect"
         d="M 39.085937,100.8418 H 178.88477 c 4.48128,0 12.13671,19.5044 12.13671,48.16797 v 17.52539 c 0,28.66356 -7.65543,48.16797 -12.13671,48.16796 H 39.085937 c -4.481287,0 -12.136718,-19.5044 -12.136718,-48.16796 v -17.52539 c 0,-28.66357 7.655431,-48.16797 12.136718,-48.16797 z" /></g><g
       id="g34"
       style="display:inline"><path
         style="fill:#800000;fill-opacity:1;stroke-width:0.264583"
         id="circle32"
         inkscape:path-effect="#path-effect32"
         sodipodi:type="arc"
         sodipodi:cx="113.26512"
         sodipodi:cy="160.91066"
         sodipodi:rx="91.011528"
         sodipodi:ry="91.011528"
         d="m 113.26563,71.998047 c 49.09373,0 88.9121,39.818373 88.9121,88.912113 0,49.09373 -39.81837,88.91211 -88.9121,88.91211 -49.093737,0 -88.912114,-39.81838 -88.912114,-88.91211 0,-49.09374 39.818377,-88.912113 88.912114,-88.912113 z" /><path
         style="fill:#ffffff;fill-opacity:1;stroke-width:0.264583"
         id="path31"
         inkscape:path-effect="#path-effect33"
         sodipodi:type="arc"
         sodipodi:cx="113.26512"
         sodipodi:cy="160.91066"
         sodipodi:rx="91.011528"
         sodipodi:ry="91.011528"
         d="m 113.26563,81.097656 c 44.02201,0 79.81249,35.790484 79.81249,79.812504 0,44.02201 -35.79048,79.8125 -79.81249,79.8125 -44.022019,0 -79.812505,-35.79049 -79.812505,-79.8125 0,-44.02202 35.790486,-79.812504 79.812505,-79.812504 z" /></g><g
       id="g33"
       transform="rotate(-22.673622,154.05156,114.04122)"><path
         id="path30"
         style="display:inline;fill:#000000;stroke-width:0.899631"
         d="m 128.32031,119.28516 c 2.65045,-0.065 5.25724,0.98275 7.43555,2.51757 2.63103,1.91939 4.87432,4.63071 5.40625,7.83985 0.11168,1.16181 0.0371,2.9726 1.47656,3.83594 l 0.008,0.004 0.006,0.004 c 1.3442,0.74886 3.44333,0.52807 4.29297,-0.9336 l 0.0176,-0.0312 0.0137,-0.0332 c 0.98668,-2.435 0.24259,-5.01632 0.93946,-7.29687 0.52785,-1.6557 1.17187,-2.92774 1.17187,-2.92774 0.17974,-0.37691 0.37601,-0.75737 0.58398,-1.12109 0.26086,-0.4562 0.53436,-0.87704 0.82227,-1.23438 0.13273,-0.16474 0.26603,-0.30685 0.39844,-0.43554 0.003,9.7e-4 0.005,8.8e-4 0.008,0.002 0.0122,0.005 0.0245,0.009 0.0391,0.0156 0.0162,0.007 0.0341,0.0161 0.0527,0.0254 0.7574,0.37635 2.04003,1.73414 2.9414,2.4414 l -0.0996,0.0957 0.01,0.004 c -0.61901,0.63259 -1.31252,1.39618 -1.66406,1.95899 l -0.0176,0.0293 -0.0156,0.0312 c -0.48203,1.07314 -0.70066,2.25304 -0.79101,3.38477 l -0.004,0.0352 0.004,0.0371 c 0.15675,2.34985 0.42175,4.72105 -0.72266,6.71289 l -0.006,0.01 -0.004,0.008 c -0.80733,1.54403 -2.268,2.6614 -3.89844,3.35352 -3.04042,1.00715 -6.68723,-0.30994 -8.4082,-3.00977 -0.47535,-0.94147 -0.76976,-1.98223 -1.02539,-3.05078 -0.26499,-3.63944 -2.99186,-6.91156 -6.51563,-7.8418 -1.85339,-0.49187 -3.98848,-0.58872 -5.83398,0.25782 -1.92181,0.89932 -3.44502,2.39834 -4.41797,4.23632 0,0 -0.002,0.002 -0.002,0.002 -0.004,0.009 -0.009,0.0169 -0.0137,0.0254 -0.19463,0.32821 -2.96923,5.90136 -4.3457,7.89258 -0.11929,0.17256 -0.20632,0.28656 -0.28516,0.3789 -1.03835,-0.62288 -1.91094,-1.73936 -3.0664,-2.43359 1.08873,-2.15967 5.3591,-9.84511 6.38086,-10.86524 2.37301,-2.41908 5.74679,-3.69397 9.1289,-3.92382 z"
         sodipodi:nodetypes="cccccccccccccccccccsc"
         inkscape:path-effect="#path-effect34"
         inkscape:original-d="m 147.43849,125.03846 c -0.72722,2.37978 0.0211,4.92906 -0.92458,7.26289 -0.69741,1.19978 -2.47324,1.38444 -3.61785,0.74677 -1.20491,-0.72268 -1.11757,-2.25927 -1.23755,-3.47645 -0.55592,-3.38173 -2.90632,-6.2021 -5.60808,-8.17308 -2.24685,-1.5832 -4.96052,-2.68098 -7.74174,-2.6128 -3.48582,0.23233 -6.99812,1.54874 -9.47426,4.07295 -1.18213,1.1802 -5.98552,9.91327 -6.6888,11.42188 1.39127,0.63861 2.36471,2.10698 3.72577,2.80461 0.50911,0.49471 4.86362,-8.26019 5.08033,-8.61609 0.92308,-1.75711 2.37357,-3.1869 4.20178,-4.04243 1.70428,-0.78174 3.71154,-0.70171 5.49335,-0.22883 3.33762,0.8811 5.92734,4.00266 6.1521,7.45159 0.26142,1.09535 0.57051,2.20099 1.08174,3.2062 1.83546,2.90289 5.76119,4.32155 9.02153,3.23003 1.71482,-0.72415 3.28685,-1.91224 4.16372,-3.58928 1.22078,-2.12477 0.94375,-4.65714 0.78777,-6.99545 0.0876,-1.09731 0.29905,-2.21607 0.75027,-3.22061 0.48247,-0.77242 1.73832,-2.04574 2.39855,-2.6688 0.19482,1.57473 -3.59527,-3.29624 -4.36974,-2.58668 -1.80269,1.6516 -3.19431,6.01358 -3.19431,6.01358 z" /><path
         id="path19"
         style="display:inline;fill:#502d16"
         d="m 154.63477,131.76367 c 2.54907,-0.0516 5.11431,0.95867 7.3496,2.5332 l 0.002,0.002 c 2.70063,1.97708 4.86901,4.65121 5.39258,7.69726 0.10384,1.1592 0.0558,3.96093 2.34179,5.33203 l 0.0293,0.0176 0.0273,0.0156 c 2.07912,1.1583 5.36234,0.81194 6.75391,-1.58203 l 0.0723,-0.12305 0.0547,-0.13281 c 1.21312,-2.99372 0.39994,-5.95298 1.08008,-8.2168 0.77142,-2.41834 1.60366,-3.92396 2.19727,-4.80273 0.29335,0.25223 0.60376,0.52551 0.92968,0.82031 l -0.54296,0.5293 0.14648,0.0625 c -0.24324,0.2997 -0.46408,0.59235 -0.63086,0.85937 l -0.0742,0.11719 -0.0566,0.12695 c -0.62649,1.39473 -0.89538,2.88899 -1.00391,4.24805 l -0.0117,0.14648 0.01,0.14844 c 0.1765,2.64589 0.43682,4.80851 -0.61133,6.63281 l -0.0195,0.0352 -0.0195,0.0352 c -0.6936,1.32654 -1.98781,2.35541 -3.54687,3.0293 -2.73579,0.87924 -5.97261,-0.28406 -7.55079,-2.6914 -0.42516,-0.86106 -0.71217,-1.83778 -0.97656,-2.9336 -0.40689,-4.60547 -3.84548,-8.69039 -8.31054,-9.86914 -2.27052,-0.60257 -5.01834,-0.75378 -7.47071,0.37109 l -0.006,0.002 -0.008,0.004 c -2.43246,1.13831 -4.34846,3.02674 -5.57422,5.33399 -0.009,0.0173 -0.0202,0.0334 -0.0293,0.0508 -0.54114,0.91939 -1.58852,3.13285 -2.99609,5.75977 -0.68908,1.28602 -1.35359,2.47425 -1.9082,3.38281 -0.50518,-0.33677 -1.03926,-0.69346 -1.5918,-1.05078 1.95944,-3.50129 6.45115,-11.04445 7.36328,-11.95508 l 0.008,-0.008 0.006,-0.008 c 2.3448,-2.39031 5.70768,-3.67918 9.17579,-3.91992 z"
         sodipodi:nodetypes="cccccccccccccccccccsc"
         inkscape:path-effect="#path-effect30"
         inkscape:original-d="m 175.81093,136.69048 c -0.80835,2.64529 0.0235,5.47898 -1.02773,8.07319 -0.77522,1.33364 -2.74917,1.5389 -4.02148,0.83008 -1.33934,-0.8033 -1.24226,-2.51133 -1.37562,-3.8643 -0.61795,-3.75902 -3.23057,-6.89405 -6.23376,-9.08492 -2.49752,-1.75983 -5.51394,-2.98009 -8.60546,-2.9043 -3.87472,0.25825 -7.77887,1.72153 -10.53126,4.52735 -1.31402,1.31187 -7.86374,12.48187 -8.64548,14.15879 1.54649,0.70986 3.23375,2.14031 4.74666,2.91577 0.56591,0.5499 6.01145,-10.44262 6.25234,-10.83823 1.02606,-1.95314 2.63838,-3.54245 4.67055,-4.49343 1.89442,-0.86895 4.12563,-0.77999 6.10623,-0.25436 3.70998,0.97941 6.58863,4.44923 6.83846,8.28294 0.29059,1.21756 0.63416,2.44655 1.20243,3.56391 2.04024,3.22675 6.40395,4.80368 10.02803,3.59039 1.90614,-0.80494 3.65355,-2.12558 4.62825,-3.98972 1.35698,-2.36183 1.04904,-5.17673 0.87566,-7.77591 0.0974,-1.21974 0.33241,-2.46331 0.83397,-3.57992 0.5363,-0.8586 1.93226,-2.27398 2.66615,-2.96655 0.21656,1.75042 -3.99638,-3.66399 -4.85725,-2.87527 -2.00381,1.83587 -3.55069,6.68449 -3.55069,6.68449 z"
         transform="matrix(0.89963139,0,0,0.89963139,-10.72654,2.0674021)" /><path
         id="path19-8"
         style="display:inline;fill:#000000;stroke-width:0.899631"
         d="m 160.81372,105.04134 c -0.80582,0.58159 -1.12978,1.62086 -1.6657,2.43193 -0.47361,0.79381 -0.92544,1.73927 -1.46193,2.41238 -0.9062,-1.0876 -1.65645,-2.29283 -2.38022,-3.50231 -0.31019,-0.48498 -0.96443,-1.29029 -1.55566,-0.74283 -0.4757,0.77053 -0.0298,1.77715 -0.0219,2.58443 0.11046,1.02902 0.20517,2.0598 0.32759,3.08746 -1.91478,-0.3479 -3.56726,-1.45557 -5.38373,-2.07863 -0.58137,-0.21862 -1.06031,0.46105 -0.70519,0.94868 0.96921,1.51399 2.37252,2.68964 3.52884,4.052 -1.80159,0.52163 -3.78491,0.58709 -5.56472,1.31255 -0.64451,0.17781 -0.90538,1.10623 -0.25334,1.44704 1.48819,0.81034 3.46509,0.60104 4.37369,1.60897 1.40145,1.55468 0.0876,2.95169 0.11649,3.58725 0.0501,1.10155 1.54229,0.29108 2.13419,-0.0709 0.66474,-0.40648 0.99712,-0.14245 1.95286,0.4874 1.32491,0.87313 0.48071,1.56779 0.61923,3.14021 0.0202,0.62803 0.70052,0.9413 1.04308,0.39368 1.04745,-1.37868 1.21836,-1.475 2.30932,-2.82481 0.61588,0.71369 0.63263,0.94897 1.24627,1.67373 0.76537,1.14994 1.28371,2.51605 2.32639,3.45268 0.52538,0.44251 1.1641,-0.1564 1.06669,-0.74182 -0.0863,-2.08121 -0.89651,-3.86692 -1.05172,-5.93438 0.61673,-0.0802 1.26187,0.12522 1.89779,0.27512 1.29355,0.29859 2.46387,1.13713 3.80833,1.17549 0.71743,-0.0623 0.6359,-0.9631 0.18909,-1.31926 -1.18778,-1.36919 -2.74575,-2.41562 -3.77004,-3.92215 1.5913,-0.53799 3.36655,-0.50934 4.89503,-1.28338 0.60064,-0.22684 0.65796,-1.11614 0.0318,-1.35402 -1.56571,-0.6499 -3.33161,-0.52949 -4.89919,-1.17545 -0.2793,-0.23093 0.37849,-0.57793 0.45313,-0.8509 0.88594,-1.16464 2.05931,-2.16133 2.66261,-3.512 0.22964,-0.62044 -0.52853,-1.00732 -1.02485,-0.71321 -1.49083,0.7221 -3.00217,1.43615 -4.60664,1.87641 -0.10471,-1.89468 0.41371,-3.80563 0.0474,-5.6842 -0.14262,-0.27992 -0.4002,-0.3561 -0.68526,-0.23721 z"
         sodipodi:nodetypes="ccccccccccccssssccccccccccccccccccccc" /><path
         id="path25"
         style="display:inline;fill:#aa0000;stroke-width:1.05809"
         d="m 160.32336,108.04396 c -0.52866,0.86326 -1.02978,1.8314 -1.76825,2.50406 -1.14895,0.45245 -2.05735,-0.60386 -2.61364,-1.4568 -0.344,-0.44695 -0.68225,-0.89993 -0.99046,-1.37257 0.15052,1.4725 0.56075,2.83921 0.0668,4.08334 -0.59456,1.49747 -3.43824,-0.30957 -5.03703,-1.02289 0.67643,0.82949 2.0769,1.93122 2.30895,3.02576 0.0843,1.14795 -1.01281,1.31272 -2.06162,1.53931 -1.15504,0.32483 -0.11343,0.0863 -2.50573,0.54237 -0.54318,0.10355 -1.32665,0.21616 -0.76558,0.39288 1.10597,0.34856 3.60937,0.73435 4.50784,1.27652 0.68936,0.40463 0.56527,0.99893 0.48085,1.67011 -0.11892,0.94544 -0.50957,1.53975 -0.77708,2.43459 -0.0652,0.21829 1.64489,-0.74867 2.46551,-0.70268 1.07016,-0.0362 2.05658,1.21418 1.94855,2.22909 0.0355,0.37059 0.061,1.29085 0.0748,1.91911 0.83981,-0.66063 1.36801,-3.24262 2.64235,-3.06147 1.47247,0.33714 2.07809,1.92177 2.72269,3.05532 0.18545,0.37006 0.50647,1.09314 0.70092,1.1207 -0.0428,-1.16137 -0.93774,-3.16545 -0.67105,-4.36545 0.4149,-1.09827 1.82066,-1.29896 2.80385,-0.88633 0.71201,0.16934 1.40437,0.40565 2.1018,0.62485 -0.89682,-0.89279 -1.92204,-1.7775 -2.4103,-2.96486 -0.29729,-1.19826 0.90425,-2.13633 2.00889,-2.20791 0.60616,-0.13775 1.21933,-0.24266 1.83059,-0.35752 -1.19827,-0.24268 -2.5289,-0.39828 -3.50552,-1.18387 -0.82757,-0.85924 -0.35052,-2.20654 0.43611,-2.9169 0.14323,-0.29791 1.15519,-1.1944 0.77365,-1.08614 -1.10507,0.40155 -2.24535,0.88277 -3.42923,0.91052 -1.12874,-0.19274 -1.10092,-1.55104 -1.07162,-2.43242 -0.008,-0.65318 0.0525,-1.30386 0.0926,-1.95516 -0.11962,0.21481 -0.23924,0.42963 -0.35885,0.64444 z"
         sodipodi:nodetypes="scccscccsscssccccccccccccccccccss" /><path
         id="path29"
         style="display:inline;fill:#ffff00;stroke-width:1.05809"
         d="m 159.92229,109.61729 c -0.4829,0.68272 -1.00627,1.62117 -1.97849,1.51286 -0.99425,-0.0379 -1.74507,-0.82456 -2.27367,-1.59193 0.0914,1.03111 0.17213,2.34589 -0.70636,3.07491 -0.91756,0.58217 -2.15348,-0.0321 -2.94137,-0.30574 0.6143,0.70443 1.10425,1.8466 0.37953,2.64971 -0.77636,0.78532 -1.97827,0.74702 -2.96304,1.09358 -0.82145,0.0932 -0.91242,0.2015 -0.0434,0.32966 0.98667,0.30105 2.21918,0.39711 2.87109,1.29497 0.46367,0.93113 0.0991,2.03471 -0.21085,2.96246 -0.31277,0.55337 0.54128,-0.0743 0.81491,-0.0421 1.59883,-0.58733 3.29674,0.97542 3.1895,2.5846 -0.0575,0.8599 0.27842,-0.1302 0.4955,-0.41995 0.41292,-0.8025 1.36453,-1.53848 2.27761,-1.04237 0.80401,0.31392 1.3836,1.00468 1.81818,1.72588 -0.22474,-0.93064 -0.2338,-2.11573 0.6744,-2.68931 0.86125,-0.63357 2.01896,-0.525 2.96629,-0.16421 -0.71165,-0.82238 -1.62852,-1.91802 -1.11602,-3.06998 0.3228,-0.77672 1.08169,-1.30661 1.88211,-1.50197 -0.98626,-0.28871 -2.08183,-0.96855 -2.08082,-2.12107 -0.0358,-0.74804 0.28834,-1.48085 0.7753,-2.03621 -0.95075,0.24332 -2.15668,0.75264 -2.99756,-0.003 -0.68672,-0.64983 -0.663,-1.67774 -0.64138,-2.55247 -0.0639,0.10367 -0.12768,0.20734 -0.19152,0.31101 z" /></g><path
       style="display:inline;fill:#cccccc;stroke-width:1.26611"
       d="m 127.26334,206.73292 c -1.76876,-0.37944 -5.49641,-2.06262 -5.69736,-2.57258 -0.12304,-0.31202 -0.31406,-0.2895 -0.83411,0.0983 -0.37103,0.2767 -1.77327,0.9509 -3.11607,1.49823 -2.23065,0.90923 -2.75295,0.99507 -6.04831,0.99402 -3.1241,-7.5e-4 -3.98775,-0.12674 -6.45309,-0.93962 -1.56543,-0.51615 -3.11315,-1.22653 -3.43937,-1.57859 -1.01855,-1.09923 -2.543457,-1.13714 -5.202577,-0.12936 -2.56396,0.9717 -5.0774,1.14294 -10.122807,0.68964 -2.012952,-0.18086 -2.670725,-0.10884 -4.089656,0.44758 -4.216677,1.65361 -7.453505,1.68906 -11.300681,0.12378 -1.958826,-0.79697 -5.082527,-3.14232 -5.82645,-4.37465 -0.365212,-0.605 -0.934574,-0.86951 -2.45379,-1.13998 -1.088029,-0.19372 -2.655127,-0.35222 -3.48244,-0.35222 -5.189006,0 -10.948161,-3.45077 -13.348459,-7.99812 -2.595278,-4.91674 -2.128393,-9.97223 1.303767,-14.11729 1.132175,-1.36734 1.336949,-1.84941 1.259551,-2.96522 -0.135496,-1.95338 0.599745,-5.11042 1.651604,-7.0918 0.506522,-0.95414 1.833115,-2.58642 2.947985,-3.62729 l 2.027038,-1.89249 0.165733,-2.40078 c 0.301788,-4.37162 3.469922,-8.76563 7.617103,-10.56445 l 1.912165,-0.82939 v -1.78922 c 0,-7.02404 6.035018,-13.66901 13.908625,-15.31438 1.253711,-0.26199 2.854516,-0.47845 3.557343,-0.48102 1.17138,-0.005 1.311859,-0.10526 1.685781,-1.21168 0.567328,-1.67874 2.949084,-4.85344 5.015723,-6.6856 5.060155,-4.48605 12.657162,-6.52261 19.448002,-5.2135 4.47199,0.86208 7.68168,2.42697 11.01728,5.37143 4.14492,3.65891 6.20683,7.45186 6.76091,12.43697 0.184,1.65546 0.43181,2.35318 1.00112,2.81856 0.71692,0.58606 0.87782,0.59467 3.06917,0.16423 9.18579,-1.80435 18.7032,3.50472 21.563,12.02844 0.79535,2.37059 0.81091,7.23034 0.0301,9.40286 l -0.54538,1.51747 2.24352,1.98896 c 2.65859,2.35697 4.24683,5.06642 4.84168,8.25972 l 0.41145,2.20873 1.69956,0.69123 c 3.72582,1.51531 6.8807,4.96638 7.98913,8.73914 2.54351,8.65725 -4.96967,17.50074 -14.86813,17.50074 -1.8245,0 -2.68797,0.18716 -4.36955,0.94714 -1.3127,0.59326 -3.15917,1.08669 -4.94199,1.32067 -2.57632,0.33808 -3.00828,0.50101 -4.55471,1.71796 -2.31142,1.81893 -4.65382,2.55064 -8.23421,2.57214 -1.57603,0.01 -3.46523,-0.11147 -4.19821,-0.26869 z"
       id="path26"
       sodipodi:nodetypes="scsscsssscssssssssscsscsscssssssssscsscsssssscss" /><path
       style="display:inline;fill:#000000;stroke-width:1.26611"
       d="m 127.26334,206.73292 c -1.76876,-0.37944 -5.49641,-2.06262 -5.69736,-2.57258 -0.12304,-0.31202 -0.31406,-0.2895 -0.83411,0.0983 -0.37103,0.2767 -1.77327,0.9509 -3.11607,1.49823 -2.23065,0.90923 -2.75295,0.99507 -6.04831,0.99402 -3.1241,-7.5e-4 -3.98775,-0.12674 -6.45309,-0.93962 -1.56543,-0.51615 -3.11315,-1.22653 -3.43937,-1.57859 -1.01855,-1.09923 -2.543457,-1.13714 -5.202577,-0.12936 -2.56396,0.9717 -5.0774,1.14294 -10.122807,0.68964 -2.012952,-0.18086 -2.670725,-0.10884 -4.089656,0.44758 -4.216677,1.65361 -7.453505,1.68906 -11.300681,0.12378 -1.958826,-0.79697 -5.082527,-3.14232 -5.82645,-4.37465 -0.365212,-0.605 -0.934574,-0.86951 -2.45379,-1.13998 -1.088029,-0.19372 -2.655127,-0.35222 -3.48244,-0.35222 -5.189006,0 -10.948161,-3.45077 -13.348459,-7.99812 -2.595278,-4.91674 -2.128393,-9.97223 1.303767,-14.11729 1.132175,-1.36734 1.336949,-1.84941 1.259551,-2.96522 -0.135496,-1.95338 0.599745,-5.11042 1.651604,-7.0918 0.506522,-0.95414 1.833115,-2.58642 2.947985,-3.62729 l 2.027038,-1.89249 0.165733,-2.40078 c 0.301788,-4.37162 3.469922,-8.76563 7.617103,-10.56445 l 1.912165,-0.82939 v -1.78922 c 0,-7.02404 6.035018,-13.66901 13.908625,-15.31438 1.253711,-0.26199 2.854516,-0.47845 3.557343,-0.48102 1.17138,-0.005 1.311859,-0.10526 1.685781,-1.21168 0.567328,-1.67874 2.949084,-4.85344 5.015723,-6.6856 5.060155,-4.48605 12.657162,-6.52261 19.448002,-5.2135 4.47199,0.86208 7.68168,2.42697 11.01728,5.37143 4.14492,3.65891 6.20683,7.45186 6.76091,12.43697 0.184,1.65546 0.43181,2.35318 1.00112,2.81856 0.71692,0.58606 0.87782,0.59467 3.06917,0.16423 9.18579,-1.80435 18.7032,3.50472 21.563,12.02844 0.79535,2.37059 0.81091,7.23034 0.0301,9.40286 l -0.54538,1.51747 2.24352,1.98896 c 2.65859,2.35697 4.24683,5.06642 4.84168,8.25972 l 0.41145,2.20873 1.69956,0.69123 c 3.72582,1.51531 6.8807,4.96638 7.98913,8.73914 2.54351,8.65725 -4.96967,17.50074 -14.86813,17.50074 -1.8245,0 -2.68797,0.18716 -4.36955,0.94714 -1.3127,0.59326 -3.15917,1.08669 -4.94199,1.32067 -2.57632,0.33808 -3.00828,0.50101 -4.55471,1.71796 -2.31142,1.81893 -4.65382,2.55064 -8.23421,2.57214 -1.57603,0.01 -3.46523,-0.11147 -4.19821,-0.26869 z m -11.83124,-5.48421 c 1.61837,-0.64459 3.59746,-2.16251 4.95636,-3.80144 0.51776,-0.62446 0.5292,-0.62319 1.13121,0.1253 1.40111,1.74205 2.6889,2.80068 4.47246,3.67659 1.67861,0.82438 2.23392,0.92934 4.91651,0.92934 2.65652,0 3.22595,-0.10514 4.68424,-0.86516 0.91305,-0.47586 2.22132,-1.44644 2.90724,-2.15688 4.37711,-4.53349 0.62256,-11.96021 -6.04642,-11.96021 h -1.90085 l -0.008,-1.02512 c -0.0108,-1.3357 -1.0492,-3.31416 -2.34279,-4.46095 -3.76805,-3.34054 -10.04707,-2.50961 -12.61666,1.66963 l -0.69809,1.1354 0.12747,-1.7348 c 0.0702,-0.95413 0.34619,-2.19217 0.61344,-2.75118 0.45715,-0.95623 0.42272,-1.09614 -0.58158,-2.36296 -2.0925,-2.63945 -5.80466,-3.63752 -9.46011,-2.54346 -1.5096,0.45182 -1.95437,0.49513 -1.81663,0.17688 0.27351,-0.63188 2.89663,-1.89007 4.83337,-2.31834 3.33182,-0.73675 8.13697,1.16965 9.69933,3.84812 0.29673,0.50871 0.70899,0.83205 0.91613,0.71855 0.20715,-0.11348 1.18013,-0.29555 2.16219,-0.40457 1.75288,-0.19461 1.79821,-0.22709 2.47721,-1.77531 0.84211,-1.92019 3.40324,-4.33146 5.80502,-5.46541 1.56627,-0.73948 2.18296,-0.84006 5.15885,-0.8414 2.44002,-7.5e-4 3.66658,0.13927 4.41073,0.50477 l 1.03079,0.50627 -2.45966,0.15602 c -2.94591,0.18685 -5.20125,1.01292 -7.26168,2.65973 -1.35631,1.08405 -3.17877,3.78278 -3.18812,4.72103 -9e-4,0.19171 0.68337,0.73344 1.52284,1.20386 1.89891,1.06412 3.70942,3.38315 4.02087,5.15021 l 0.23627,1.34052 1.64449,0.003 c 3.35846,0.005 7.02914,2.3841 8.70005,5.63579 0.57412,1.11726 0.75183,2.09944 0.76042,4.20275 l 0.0108,2.74476 0.88946,-0.17968 c 3.07675,-0.62154 5.97862,-2.75659 7.43129,-5.46755 0.77934,-1.45439 0.92946,-2.1742 0.92875,-4.45337 -9e-4,-2.97629 0.17776,-2.99952 1.60652,-0.20877 0.7666,1.4974 0.97473,5.57364 0.35802,7.0117 -0.33169,0.77344 -0.301,0.80335 0.62262,0.60661 2.70875,-0.57699 5.36964,-2.57282 6.88489,-5.16408 0.65054,-1.11249 0.83178,-1.93229 0.83824,-3.79164 0.006,-2.05405 -0.149,-2.65541 -1.1641,-4.48345 -1.69444,-3.05136 -4.20291,-4.71758 -8.19651,-5.44443 l -1.89744,-0.34535 -0.0595,-1.93415 c -0.071,-2.31101 -0.79125,-3.33711 -3.11158,-4.43249 -1.20456,-0.56865 -2.01054,-0.71926 -3.44135,-0.64311 -2.09363,0.11146 -2.28353,-0.28386 -0.42271,-0.87993 1.51608,-0.48564 3.20401,-0.5364 4.40263,-0.13238 1.03394,0.34849 1.03849,0.3424 0.56668,-0.75779 -0.63374,-1.47775 -3.14371,-3.55244 -5.18742,-4.28779 -1.63313,-0.58764 -2.43131,-0.67941 -4.88045,-0.56108 -2.84928,0.13765 -3.84108,0.43046 -5.93471,1.75214 l -0.87198,0.55046 0.6941,-1.07211 c 0.93594,-1.44568 2.7059,-2.95062 4.33387,-3.68498 0.73764,-0.33274 1.40462,-0.63758 1.48219,-0.67743 0.37688,-0.19362 -1.91005,-2.69822 -3.10262,-3.39788 -1.81102,-1.06251 -5.06899,-2.05034 -7.69912,-2.33443 l -2.14745,-0.23196 2.10912,-0.56879 c 4.1145,-1.10959 8.97319,0.008 12.09109,2.78267 0.99829,0.88821 2.13414,2.00097 2.52409,2.4728 0.38998,0.47181 1.13916,0.94625 1.66487,1.05426 0.88486,0.18183 0.98681,0.0947 1.37303,-1.17328 0.23151,-0.76005 0.35082,-2.4992 0.26807,-3.90733 -0.45254,-7.70022 -8.7801,-13.65215 -16.36583,-11.69713 -2.79831,0.7212 -5.23185,2.30189 -6.57286,4.26938 l -1.12949,1.65717 -0.62454,-0.89254 c -1.05312,-1.50506 -2.7407,-2.96685 -4.18856,-3.62817 -1.72648,-0.78858 -4.77149,-1.08655 -6.29429,-0.61592 -0.637,0.19686 -1.22149,0.3018 -1.29886,0.23321 -0.36315,-0.32195 2.22116,-1.52313 3.98106,-1.85039 1.90977,-0.35513 2.63645,-0.27814 5.54576,0.58753 0.30475,0.0907 0.94516,-0.12874 1.42313,-0.48759 l 0.86904,-0.65247 -2.02756,-1.70536 c -2.66167,-2.2387 -5.12356,-3.08145 -9.0017,-3.08145 -3.23246,0 -5.92437,0.73646 -8.32346,2.27718 -1.72345,1.10682 -1.81202,0.91713 -0.45558,-0.97558 1.26549,-1.76579 3.29294,-3.35114 5.38104,-4.20769 2.35891,-0.96764 8.27518,-0.92692 11.00553,0.0757 l 1.91501,0.70325 -0.22532,-0.99877 c -0.7635,-3.38438 -4.84475,-8.0382 -8.61229,-9.82048 -10.31762,-4.88091 -22.64109,0.40133 -25.185929,10.79549 -0.188002,0.76791 -0.263089,0.78584 -2.869035,0.68504 -6.089052,-0.2355 -11.334367,2.57287 -13.789862,7.3832 -0.845009,1.65537 -1.109885,5.28706 -0.531727,7.29045 0.284374,0.98538 0.257349,1.0151 -1.245238,1.36931 -3.968422,0.93545 -7.466507,3.6134 -8.777352,6.71942 -0.42002,0.99525 -0.763673,2.1303 -0.763673,2.52234 0,0.68203 0.102089,0.70703 2.365352,0.57928 1.300943,-0.0735 3.222306,0.0364 4.269691,0.24428 1.738981,0.34501 1.983482,0.32264 2.815724,-0.25774 0.501261,-0.34955 1.440058,-0.79023 2.086218,-0.97928 1.069738,-0.313 1.193356,-0.48239 1.381871,-1.89351 0.480757,-3.59868 3.75988,-6.68245 8.004943,-7.52803 2.016799,-0.40173 2.525408,0.0417 0.826681,0.72091 -3.34291,1.3364 -5.48363,4.54229 -5.522187,8.26986 l -0.02336,2.25787 -1.281549,0.18167 c -1.7375,0.24632 -4.078322,1.81097 -4.934046,3.29803 l -0.703456,1.22244 0.79238,0.32007 c 1.062975,0.42937 3.021637,1.91012 3.437216,2.59853 0.291561,0.48298 0.05042,0.45368 -1.841386,-0.22376 -3.888377,-1.39238 -8.533099,-0.694 -11.526028,1.73309 -0.603443,0.48935 -1.271869,1.16649 -1.48539,1.50474 -0.818452,1.29656 -0.876185,0.066 -0.06862,-1.46248 1.047759,-1.9832 3.039499,-3.78957 5.146705,-4.66769 1.158094,-0.48261 1.595971,-0.84983 1.595971,-1.33842 0,-0.62552 -0.135539,-0.66095 -1.90795,-0.49878 -4.910197,0.44928 -8.636453,3.76024 -9.309801,8.27221 l -0.235358,1.57709 2.61346,0.0144 c 1.772511,0.01 3.071386,0.2033 4.036588,0.60137 l 1.423129,0.58693 -2.05789,0.25602 c -4.020913,0.50026 -7.166735,2.36601 -8.7992,5.21868 -1.24343,2.17286 -1.430651,6.05487 -0.39237,8.13576 1.148135,2.30108 2.722022,3.8384 4.83843,4.72602 1.055828,0.44283 2.009652,0.80512 2.11961,0.80512 0.109955,0 0.201487,-0.81614 0.203399,-1.81364 0.0024,-1.25649 0.270616,-2.32233 0.873088,-3.46958 1.004846,-1.91346 1.438,-2.13171 1.104701,-0.55664 -0.127947,0.6046 -0.06331,1.65672 0.143634,2.33803 0.379059,1.24801 2.427756,4.16509 3.052978,4.34706 0.192144,0.0559 0.348113,-1.01876 0.363212,-2.50267 0.03441,-3.38225 0.995423,-5.61535 3.434883,-7.98165 2.667217,-2.58727 4.731073,-3.44141 8.279473,-3.42656 1.604487,0.007 3.311924,0.19853 3.913607,0.43967 l 1.067347,0.42776 -2.125225,0.26137 c -4.040316,0.4969 -7.220887,2.47524 -9.152905,5.69317 -1.187007,1.97706 -1.180132,6.41492 0.01304,8.45159 1.95,3.32841 5.019363,5.03843 9.052824,5.04357 2.36487,0.003 4.880582,-0.61966 4.880582,-1.20803 0,-0.16339 -0.316689,-0.9158 -0.703752,-1.67203 -1.219099,-2.38183 -0.701133,-7.6227 0.86743,-8.77678 0.380801,-0.28018 0.433897,0.0282 0.286062,1.66085 -0.210128,2.32074 0.484334,4.07743 2.361012,5.97234 2.645311,2.67101 7.631813,3.59618 11.078311,2.05539 l 1.58747,-0.70969 0.17789,-3.46958 0.1779,-3.46957 1.65715,2.83875 c 2.082967,3.56813 3.617297,5.14931 6.059927,6.24495 3.57105,1.6018 6.73146,1.72581 10.07203,0.39526 z M 85.992012,187.17397 c -0.34194,-0.44594 -0.799937,-1.59754 -1.017762,-2.55912 -1.225276,-5.40889 4.620982,-10.56969 10.634983,-9.38805 1.4557,0.28601 4.34634,1.62944 4.34634,2.01996 0,0.0742 -1.0807,0.0558 -2.40154,-0.0408 -2.96873,-0.2172 -4.927079,0.2281 -6.915165,1.57242 -2.498634,1.68955 -3.614619,3.62187 -3.83672,6.64329 -0.188002,2.55746 -0.189804,2.56136 -0.810136,1.75235 z m 8.154651,-23.29969 c -1.482446,-1.45473 -1.815076,-2.67372 -1.587487,-5.81776 0.295808,-4.08623 3.257127,-7.75389 7.752174,-9.6012 1.59984,-0.6575 2.50845,-0.80656 4.98096,-0.81716 2.57684,-0.0107 3.33989,0.11671 5.15883,0.86408 2.06329,0.8477 4.48758,2.60594 5.20956,3.77828 0.32722,0.53134 0.26128,0.52846 -1.00657,-0.0441 -1.92047,-0.86721 -4.98831,-1.62848 -6.56264,-1.62848 -8.204777,0 -14.429105,7.13066 -12.183177,13.95715 0.29929,0.90969 -0.41675,0.62887 -1.76165,-0.69085 z"
       id="path1"
       sodipodi:nodetypes="ccsscsssscssssssssscsscsscssssssssscsscssssssccccsssssssccssccsssssssssscscsscssccsccssssssscssccsssssssscsscsscscssscsscssssscscsssssscscsssssssccsssscscsscssssscssssccscsssssssssssscscsscssssssscccssccsssscsssscssccscsscc" /></g></svg>
